<svg xmlns="http://www.w3.org/2000/svg" xmlns:xlink="http://www.w3.org/1999/xlink" width="250" zoomAndPan="magnify" viewBox="0 0 375 374.999991" height="250" preserveAspectRatio="xMidYMid meet" version="1.0"><defs><g/><clipPath id="71874be034"><path d="M 96.003906 120.003906 L 270.753906 120.003906 L 270.753906 207.003906 L 96.003906 207.003906 Z M 96.003906 120.003906 " clip-rule="nonzero"/></clipPath></defs><g clip-path="url(#71874be034)"><path fill="#0e2e3b" d="M 233.820312 175.816406 C 236.078125 175.816406 236.808594 178.875 234.9375 179.964844 C 235.726562 181.457031 236.453125 182.988281 237.113281 184.550781 L 241.640625 183.054688 L 237.378906 185.195312 C 238.019531 186.753906 238.585938 188.347656 239.089844 189.972656 C 241.851562 189.261719 242.976562 193.523438 240.238281 194.273438 C 240.847656 196.957031 241.273438 199.710938 241.496094 202.519531 L 270.484375 207.238281 L 196.328125 207.238281 C 196.328125 200.019531 190.472656 194.160156 183.246094 194.160156 C 176.023438 194.160156 170.164062 200.019531 170.164062 207.238281 L 96.011719 207.238281 L 125 202.519531 C 125.222656 199.710938 125.648438 196.957031 126.257812 194.273438 C 123.519531 193.527344 124.644531 189.261719 127.40625 189.972656 C 127.910156 188.347656 128.476562 186.753906 129.113281 185.195312 L 124.851562 183.054688 L 129.382812 184.550781 C 130.039062 182.988281 130.769531 181.457031 131.554688 179.964844 C 129.089844 178.523438 131.355469 174.710938 133.785156 176.113281 C 135.707031 173.066406 137.898438 170.214844 140.332031 167.578125 L 131.957031 155.945312 L 143.589844 164.324219 C 146.222656 161.890625 149.078125 159.699219 152.121094 157.777344 C 150.722656 155.34375 154.535156 153.082031 155.972656 155.546875 C 157.460938 154.757812 158.996094 154.03125 160.558594 153.375 L 159.058594 148.84375 L 161.203125 153.105469 C 162.761719 152.46875 164.355469 151.902344 165.980469 151.398438 C 165.269531 148.636719 169.535156 147.511719 170.28125 150.25 C 172.964844 149.640625 175.71875 149.21875 178.527344 148.988281 L 183.246094 120.003906 L 187.964844 148.988281 C 190.777344 149.21875 193.53125 149.640625 196.214844 150.25 C 196.960938 147.511719 201.230469 148.636719 200.515625 151.394531 C 202.136719 151.902344 203.734375 152.46875 205.292969 153.105469 L 207.4375 148.84375 L 205.9375 153.375 C 207.503906 154.03125 209.03125 154.761719 210.519531 155.546875 C 211.960938 153.082031 215.777344 155.34375 214.375 157.777344 C 217.417969 159.699219 220.273438 161.890625 222.90625 164.324219 L 234.539062 155.945312 L 226.164062 167.585938 C 228.597656 170.214844 230.789062 173.066406 232.710938 176.113281 C 233.035156 175.925781 233.414062 175.816406 233.820312 175.816406 Z M 263.484375 207.109375 L 199.023438 196.613281 C 200.84375 199.3125 201.992188 202.5 202.222656 205.941406 Z M 234.542969 180.144531 C 232.28125 180.9375 230.601562 177.898438 232.359375 176.363281 C 230.464844 173.359375 228.300781 170.539062 225.90625 167.941406 L 212.394531 186.707031 C 212.953125 187.5 213.476562 188.3125 213.972656 189.148438 L 226.433594 181.953125 L 226.742188 182.484375 L 214.28125 189.679688 C 214.664062 190.355469 215.023438 191.046875 215.363281 191.746094 L 236.703125 184.6875 C 236.046875 183.136719 235.328125 181.621094 234.542969 180.144531 Z M 131.949219 180.144531 C 134.214844 180.933594 135.898438 177.898438 134.136719 176.363281 C 136.03125 173.359375 138.195312 170.539062 140.589844 167.941406 L 154.101562 186.707031 C 153.542969 187.5 153.015625 188.3125 152.523438 189.148438 L 140.0625 181.953125 L 139.753906 182.484375 L 152.214844 189.679688 C 151.832031 190.355469 151.472656 191.046875 151.132812 191.746094 L 129.792969 184.6875 C 130.445312 183.136719 131.167969 181.621094 131.949219 180.144531 Z M 165.152344 176.515625 L 157.957031 164.054688 L 158.492188 163.746094 L 165.6875 176.210938 C 166.363281 175.828125 167.050781 175.464844 167.753906 175.125 L 160.695312 153.789062 C 159.144531 154.441406 157.628906 155.160156 156.152344 155.941406 C 156.933594 158.207031 153.90625 159.890625 152.371094 158.128906 C 149.367188 160.023438 146.546875 162.183594 143.949219 164.585938 L 162.714844 178.09375 C 163.503906 177.535156 164.320312 177.007812 165.152344 176.515625 Z M 173.722656 172.878906 L 170 158.980469 L 170.59375 158.824219 L 174.316406 172.71875 L 174.679688 172.625 L 178.457031 149.433594 C 175.695312 149.65625 172.988281 150.074219 170.351562 150.675781 C 170.523438 153.097656 167.152344 153.902344 166.128906 151.804688 C 164.523438 152.300781 162.941406 152.867188 161.398438 153.496094 L 171.492188 173.574219 C 172.226562 173.320312 172.96875 173.085938 173.722656 172.878906 Z M 148.726562 198.308594 L 134.828125 194.585938 L 134.988281 193.992188 L 148.886719 197.714844 C 149.09375 196.960938 149.324219 196.21875 149.582031 195.484375 L 129.503906 185.390625 C 128.871094 186.9375 128.308594 188.515625 127.8125 190.125 C 129.910156 191.144531 129.109375 194.511719 126.683594 194.34375 C 126.085938 196.984375 125.664062 199.691406 125.4375 202.449219 L 148.632812 198.671875 Z M 191.8125 172.625 L 192.179688 172.71875 L 195.902344 158.820312 L 196.496094 158.980469 L 192.773438 172.878906 C 193.527344 173.082031 194.269531 173.316406 195.003906 173.570312 L 205.097656 153.496094 C 203.550781 152.867188 201.972656 152.300781 200.363281 151.804688 C 199.347656 153.902344 195.972656 153.097656 196.144531 150.675781 C 193.503906 150.074219 190.796875 149.65625 188.039062 149.433594 Z M 198.742188 175.125 C 199.445312 175.464844 200.132812 175.828125 200.808594 176.210938 L 208.003906 163.746094 L 208.535156 164.054688 L 201.34375 176.515625 C 202.175781 177.007812 202.992188 177.539062 203.78125 178.097656 L 222.546875 164.585938 C 219.949219 162.183594 217.128906 160.023438 214.121094 158.128906 C 212.589844 159.886719 209.558594 158.207031 210.339844 155.941406 C 208.867188 155.160156 207.351562 154.441406 205.800781 153.789062 Z M 194.023438 186.195312 C 195.160156 193.191406 194.238281 191.332031 196.695312 193.792969 L 230.703125 159.789062 Z M 202.71875 178.859375 C 199.507812 176.648438 195.902344 174.976562 192.03125 173.957031 L 193.863281 185.234375 Z M 183.246094 172.824219 L 183.246094 126.183594 L 172.621094 191.464844 C 175.652344 189.417969 179.308594 188.21875 183.246094 188.21875 Z M 205.257812 196.621094 L 216.53125 198.457031 C 215.511719 194.585938 213.835938 190.980469 211.628906 187.769531 Z M 217.863281 198.671875 L 241.058594 202.453125 C 240.832031 199.691406 240.410156 196.984375 239.8125 194.34375 C 237.386719 194.515625 236.585938 191.144531 238.683594 190.125 C 238.1875 188.515625 237.621094 186.9375 236.992188 185.390625 L 216.914062 195.484375 C 217.171875 196.21875 217.402344 196.960938 217.609375 197.714844 L 231.507812 193.992188 L 231.667969 194.585938 L 217.769531 198.308594 Z M 140.941406 166.933594 L 162.203125 196.46875 C 169.183594 195.328125 167.34375 196.25 169.800781 193.789062 L 135.792969 159.789062 Z M 149.964844 198.457031 L 161.238281 196.621094 L 154.867188 187.769531 C 152.660156 190.980469 150.984375 194.585938 149.964844 198.457031 Z M 172.628906 185.234375 L 174.464844 173.953125 C 170.59375 174.976562 166.988281 176.648438 163.777344 178.859375 Z M 172.628906 185.234375 " fill-opacity="1" fill-rule="evenodd"/></g><g fill="#166678" fill-opacity="1"><g transform="translate(114.095403, 232.483168)"><g><path d="M 10.9375 -2.90625 L 9.234375 -2.90625 L 9.234375 0 L 6.328125 0 L 6.328125 -2.90625 L 0.34375 -2.90625 L 0.34375 -4.984375 L 6.5 -14.046875 L 9.234375 -14.046875 L 9.234375 -5.21875 L 10.9375 -5.21875 Z M 6.328125 -5.21875 L 6.328125 -7.609375 C 6.328125 -8.003906 6.34375 -8.578125 6.375 -9.328125 C 6.414062 -10.085938 6.441406 -10.53125 6.453125 -10.65625 L 6.390625 -10.65625 C 6.148438 -10.125 5.863281 -9.609375 5.53125 -9.109375 L 2.953125 -5.21875 Z M 6.328125 -5.21875 "/></g></g></g><g fill="#166678" fill-opacity="1"><g transform="translate(127.480567, 232.483168)"><g><path d="M 2.1875 0 L 7.453125 -11.53125 L 0.53125 -11.53125 L 0.53125 -14.03125 L 10.609375 -14.03125 L 10.609375 -12.171875 L 5.296875 0 Z M 2.1875 0 "/></g></g></g><g fill="#166678" fill-opacity="1"><g transform="translate(140.86573, 232.483168)"><g><path d="M 0.6875 -5.96875 C 0.6875 -8.75 1.273438 -10.816406 2.453125 -12.171875 C 3.628906 -13.535156 5.390625 -14.21875 7.734375 -14.21875 C 8.535156 -14.21875 9.164062 -14.171875 9.625 -14.078125 L 9.625 -11.703125 C 9.050781 -11.828125 8.488281 -11.890625 7.9375 -11.890625 C 6.914062 -11.890625 6.082031 -11.734375 5.4375 -11.421875 C 4.789062 -11.117188 4.304688 -10.664062 3.984375 -10.0625 C 3.671875 -9.457031 3.484375 -8.601562 3.421875 -7.5 L 3.546875 -7.5 C 4.179688 -8.582031 5.195312 -9.125 6.59375 -9.125 C 7.851562 -9.125 8.835938 -8.726562 9.546875 -7.9375 C 10.253906 -7.15625 10.609375 -6.070312 10.609375 -4.6875 C 10.609375 -3.1875 10.1875 -2 9.34375 -1.125 C 8.5 -0.25 7.328125 0.1875 5.828125 0.1875 C 4.785156 0.1875 3.878906 -0.0507812 3.109375 -0.53125 C 2.335938 -1.007812 1.738281 -1.707031 1.3125 -2.625 C 0.894531 -3.550781 0.6875 -4.664062 0.6875 -5.96875 Z M 5.765625 -2.1875 C 6.398438 -2.1875 6.882812 -2.394531 7.21875 -2.8125 C 7.5625 -3.238281 7.734375 -3.847656 7.734375 -4.640625 C 7.734375 -5.328125 7.570312 -5.867188 7.25 -6.265625 C 6.9375 -6.660156 6.460938 -6.859375 5.828125 -6.859375 C 5.222656 -6.859375 4.707031 -6.660156 4.28125 -6.265625 C 3.851562 -5.878906 3.640625 -5.425781 3.640625 -4.90625 C 3.640625 -4.144531 3.835938 -3.5 4.234375 -2.96875 C 4.640625 -2.445312 5.148438 -2.1875 5.765625 -2.1875 Z M 5.765625 -2.1875 "/></g></g></g><g fill="#166678" fill-opacity="1"><g transform="translate(154.250894, 232.483168)"><g/></g></g><g fill="#166678" fill-opacity="1"><g transform="translate(161.512553, 232.483168)"><g><path d="M 4.703125 0 L 1.765625 0 L 1.765625 -14.046875 L 9.828125 -14.046875 L 9.828125 -11.609375 L 4.703125 -11.609375 L 4.703125 -7.984375 L 9.46875 -7.984375 L 9.46875 -5.5625 L 4.703125 -5.5625 Z M 4.703125 0 "/></g></g></g><g fill="#166678" fill-opacity="1"><g transform="translate(174.465129, 232.483168)"><g><path d="M 1.765625 0 L 1.765625 -14.046875 L 4.75 -14.046875 L 4.75 0 Z M 1.765625 0 "/></g></g></g><g fill="#166678" fill-opacity="1"><g transform="translate(183.130292, 232.483168)"><g><path d="M 14.234375 0 L 10.453125 0 L 4.328125 -10.625 L 4.25 -10.625 C 4.375 -8.75 4.4375 -7.410156 4.4375 -6.609375 L 4.4375 0 L 1.765625 0 L 1.765625 -14.046875 L 5.53125 -14.046875 L 11.625 -3.53125 L 11.703125 -3.53125 C 11.609375 -5.351562 11.5625 -6.644531 11.5625 -7.40625 L 11.5625 -14.046875 L 14.234375 -14.046875 Z M 14.234375 0 "/></g></g></g><g fill="#166678" fill-opacity="1"><g transform="translate(201.283522, 232.483168)"><g><path d="M 10.375 0 L 9.359375 -3.34375 L 4.234375 -3.34375 L 3.203125 0 L 0 0 L 4.953125 -14.109375 L 8.609375 -14.109375 L 13.578125 0 Z M 8.640625 -5.84375 C 7.703125 -8.875 7.171875 -10.585938 7.046875 -10.984375 C 6.929688 -11.378906 6.847656 -11.695312 6.796875 -11.9375 C 6.585938 -11.113281 5.984375 -9.082031 4.984375 -5.84375 Z M 8.640625 -5.84375 "/></g></g></g><g fill="#166678" fill-opacity="1"><g transform="translate(217.014266, 232.483168)"><g><path d="M 14.234375 0 L 10.453125 0 L 4.328125 -10.625 L 4.25 -10.625 C 4.375 -8.75 4.4375 -7.410156 4.4375 -6.609375 L 4.4375 0 L 1.765625 0 L 1.765625 -14.046875 L 5.53125 -14.046875 L 11.625 -3.53125 L 11.703125 -3.53125 C 11.609375 -5.351562 11.5625 -6.644531 11.5625 -7.40625 L 11.5625 -14.046875 L 14.234375 -14.046875 Z M 14.234375 0 "/></g></g></g><g fill="#166678" fill-opacity="1"><g transform="translate(235.167501, 232.483168)"><g><path d="M 7.734375 -11.78125 C 6.617188 -11.78125 5.75 -11.359375 5.125 -10.515625 C 4.507812 -9.671875 4.203125 -8.492188 4.203125 -6.984375 C 4.203125 -3.847656 5.378906 -2.28125 7.734375 -2.28125 C 8.722656 -2.28125 9.921875 -2.53125 11.328125 -3.03125 L 11.328125 -0.53125 C 10.171875 -0.0507812 8.878906 0.1875 7.453125 0.1875 C 5.410156 0.1875 3.847656 -0.429688 2.765625 -1.671875 C 1.679688 -2.910156 1.140625 -4.691406 1.140625 -7.015625 C 1.140625 -8.472656 1.40625 -9.75 1.9375 -10.84375 C 2.46875 -11.945312 3.234375 -12.789062 4.234375 -13.375 C 5.234375 -13.957031 6.398438 -14.25 7.734375 -14.25 C 9.097656 -14.25 10.472656 -13.921875 11.859375 -13.265625 L 10.890625 -10.84375 C 10.367188 -11.09375 9.835938 -11.3125 9.296875 -11.5 C 8.765625 -11.6875 8.242188 -11.78125 7.734375 -11.78125 Z M 7.734375 -11.78125 "/></g></g></g><g fill="#166678" fill-opacity="1"><g transform="translate(249.860043, 232.483168)"><g><path d="M 9.859375 0 L 1.765625 0 L 1.765625 -14.046875 L 9.859375 -14.046875 L 9.859375 -11.609375 L 4.75 -11.609375 L 4.75 -8.53125 L 9.5 -8.53125 L 9.5 -6.078125 L 4.75 -6.078125 L 4.75 -2.46875 L 9.859375 -2.46875 Z M 9.859375 0 "/></g></g></g><g fill="#143c72" fill-opacity="1"><g transform="translate(123.493612, 251.796663)"><g><path d="M 1.6875 -5.078125 C 1.6875 -4.847656 1.742188 -4.640625 1.859375 -4.453125 C 1.984375 -4.273438 2.132812 -4.117188 2.3125 -3.984375 C 2.488281 -3.847656 2.722656 -3.6875 3.015625 -3.5 C 3.335938 -3.289062 3.59375 -3.109375 3.78125 -2.953125 C 3.976562 -2.796875 4.144531 -2.601562 4.28125 -2.375 C 4.425781 -2.15625 4.5 -1.898438 4.5 -1.609375 C 4.5 -1.273438 4.40625 -0.972656 4.21875 -0.703125 C 4.039062 -0.441406 3.789062 -0.238281 3.46875 -0.09375 C 3.144531 0.0390625 2.785156 0.109375 2.390625 0.109375 C 2.097656 0.109375 1.796875 0.0703125 1.484375 0 C 1.171875 -0.0820312 0.957031 -0.171875 0.84375 -0.265625 C 0.8125 -0.296875 0.785156 -0.320312 0.765625 -0.34375 C 0.753906 -0.363281 0.75 -0.398438 0.75 -0.453125 L 0.71875 -2 L 0.71875 -2.015625 C 0.71875 -2.035156 0.734375 -2.046875 0.765625 -2.046875 C 0.796875 -2.054688 0.816406 -2.046875 0.828125 -2.015625 C 1.015625 -1.617188 1.179688 -1.296875 1.328125 -1.046875 C 1.472656 -0.804688 1.65625 -0.59375 1.875 -0.40625 C 2.101562 -0.21875 2.363281 -0.125 2.65625 -0.125 C 2.90625 -0.125 3.113281 -0.191406 3.28125 -0.328125 C 3.457031 -0.472656 3.546875 -0.710938 3.546875 -1.046875 C 3.546875 -1.328125 3.476562 -1.570312 3.34375 -1.78125 C 3.21875 -2 3.066406 -2.179688 2.890625 -2.328125 C 2.710938 -2.484375 2.460938 -2.664062 2.140625 -2.875 C 1.828125 -3.070312 1.585938 -3.238281 1.421875 -3.375 C 1.253906 -3.519531 1.109375 -3.691406 0.984375 -3.890625 C 0.859375 -4.097656 0.796875 -4.335938 0.796875 -4.609375 C 0.796875 -4.953125 0.894531 -5.238281 1.09375 -5.46875 C 1.289062 -5.707031 1.539062 -5.882812 1.84375 -6 C 2.15625 -6.113281 2.484375 -6.171875 2.828125 -6.171875 C 3.054688 -6.171875 3.285156 -6.148438 3.515625 -6.109375 C 3.753906 -6.066406 3.941406 -6.015625 4.078125 -5.953125 C 4.140625 -5.929688 4.179688 -5.90625 4.203125 -5.875 C 4.222656 -5.84375 4.234375 -5.804688 4.234375 -5.765625 L 4.234375 -4.34375 C 4.234375 -4.320312 4.21875 -4.304688 4.1875 -4.296875 C 4.15625 -4.285156 4.132812 -4.289062 4.125 -4.3125 L 4.046875 -4.5 C 3.878906 -4.90625 3.6875 -5.25 3.46875 -5.53125 C 3.257812 -5.8125 2.960938 -5.953125 2.578125 -5.953125 C 2.316406 -5.953125 2.101562 -5.878906 1.9375 -5.734375 C 1.769531 -5.585938 1.6875 -5.367188 1.6875 -5.078125 Z M 1.6875 -5.078125 "/></g></g></g><g fill="#143c72" fill-opacity="1"><g transform="translate(129.542217, 251.796663)"><g><path d="M 7.359375 -0.109375 C 7.390625 -0.109375 7.40625 -0.0859375 7.40625 -0.046875 C 7.40625 -0.015625 7.390625 0 7.359375 0 C 7.191406 0 7.0625 -0.00390625 6.96875 -0.015625 L 5.828125 -0.015625 C 5.722656 -0.00390625 5.585938 0 5.421875 0 C 5.398438 0 5.390625 -0.015625 5.390625 -0.046875 C 5.390625 -0.0859375 5.398438 -0.109375 5.421875 -0.109375 C 5.617188 -0.109375 5.753906 -0.15625 5.828125 -0.25 C 5.898438 -0.34375 5.9375 -0.519531 5.9375 -0.78125 L 5.9375 -2.1875 C 5.9375 -2.53125 5.875 -2.785156 5.75 -2.953125 C 5.632812 -3.128906 5.453125 -3.21875 5.203125 -3.21875 C 5.035156 -3.21875 4.867188 -3.179688 4.703125 -3.109375 C 4.546875 -3.035156 4.410156 -2.9375 4.296875 -2.8125 L 4.296875 -0.78125 C 4.296875 -0.519531 4.332031 -0.34375 4.40625 -0.25 C 4.476562 -0.15625 4.617188 -0.109375 4.828125 -0.109375 C 4.847656 -0.109375 4.859375 -0.0859375 4.859375 -0.046875 C 4.859375 -0.015625 4.847656 0 4.828125 0 C 4.648438 0 4.515625 -0.00390625 4.421875 -0.015625 L 3.28125 -0.015625 C 3.175781 -0.00390625 3.039062 0 2.875 0 C 2.851562 0 2.84375 -0.015625 2.84375 -0.046875 C 2.84375 -0.0859375 2.851562 -0.109375 2.875 -0.109375 C 3.070312 -0.109375 3.207031 -0.15625 3.28125 -0.25 C 3.351562 -0.34375 3.390625 -0.519531 3.390625 -0.78125 L 3.390625 -2.1875 C 3.390625 -2.53125 3.328125 -2.785156 3.203125 -2.953125 C 3.085938 -3.128906 2.910156 -3.21875 2.671875 -3.21875 C 2.515625 -3.21875 2.359375 -3.1875 2.203125 -3.125 C 2.054688 -3.0625 1.925781 -2.972656 1.8125 -2.859375 L 1.8125 -0.78125 C 1.8125 -0.519531 1.847656 -0.34375 1.921875 -0.25 C 1.992188 -0.15625 2.128906 -0.109375 2.328125 -0.109375 C 2.347656 -0.109375 2.359375 -0.0859375 2.359375 -0.046875 C 2.359375 -0.015625 2.347656 0 2.328125 0 C 2.160156 0 2.03125 -0.00390625 1.9375 -0.015625 L 0.78125 -0.015625 C 0.675781 -0.00390625 0.539062 0 0.375 0 C 0.351562 0 0.34375 -0.015625 0.34375 -0.046875 C 0.34375 -0.0859375 0.351562 -0.109375 0.375 -0.109375 C 0.570312 -0.109375 0.707031 -0.15625 0.78125 -0.25 C 0.851562 -0.34375 0.890625 -0.519531 0.890625 -0.78125 L 0.890625 -2.609375 C 0.890625 -2.804688 0.863281 -2.953125 0.8125 -3.046875 C 0.769531 -3.140625 0.695312 -3.1875 0.59375 -3.1875 C 0.476562 -3.1875 0.320312 -3.144531 0.125 -3.0625 L 0.109375 -3.0625 C 0.0859375 -3.0625 0.0703125 -3.078125 0.0625 -3.109375 C 0.0507812 -3.140625 0.0507812 -3.15625 0.0625 -3.15625 L 1.421875 -3.828125 C 1.453125 -3.835938 1.472656 -3.84375 1.484375 -3.84375 C 1.554688 -3.84375 1.625 -3.769531 1.6875 -3.625 C 1.75 -3.488281 1.789062 -3.304688 1.8125 -3.078125 C 2.25 -3.597656 2.71875 -3.859375 3.21875 -3.859375 C 3.519531 -3.859375 3.757812 -3.785156 3.9375 -3.640625 C 4.125 -3.492188 4.238281 -3.28125 4.28125 -3 C 4.726562 -3.570312 5.222656 -3.859375 5.765625 -3.859375 C 6.109375 -3.859375 6.375 -3.757812 6.5625 -3.5625 C 6.75 -3.363281 6.84375 -3.0625 6.84375 -2.65625 L 6.84375 -0.78125 C 6.84375 -0.519531 6.878906 -0.34375 6.953125 -0.25 C 7.023438 -0.15625 7.160156 -0.109375 7.359375 -0.109375 Z M 7.359375 -0.109375 "/></g></g></g><g fill="#143c72" fill-opacity="1"><g transform="translate(138.129957, 251.796663)"><g><path d="M 4.0625 -0.53125 C 4.09375 -0.53125 4.113281 -0.515625 4.125 -0.484375 C 4.132812 -0.453125 4.125 -0.429688 4.09375 -0.421875 L 3.09375 0.0625 C 3.070312 0.0703125 3.039062 0.078125 3 0.078125 C 2.894531 0.078125 2.796875 0.0234375 2.703125 -0.078125 C 2.609375 -0.191406 2.539062 -0.34375 2.5 -0.53125 L 2.09375 -0.25 C 1.9375 -0.132812 1.789062 -0.0507812 1.65625 0 C 1.53125 0.0390625 1.390625 0.0625 1.234375 0.0625 C 0.953125 0.0625 0.738281 0.00390625 0.59375 -0.109375 C 0.457031 -0.234375 0.390625 -0.40625 0.390625 -0.625 C 0.390625 -0.800781 0.429688 -0.941406 0.515625 -1.046875 C 0.597656 -1.160156 0.703125 -1.242188 0.828125 -1.296875 C 0.953125 -1.359375 1.128906 -1.429688 1.359375 -1.515625 L 1.59375 -1.59375 L 2.46875 -1.921875 L 2.46875 -2.46875 C 2.46875 -2.882812 2.429688 -3.1875 2.359375 -3.375 C 2.296875 -3.5625 2.1875 -3.65625 2.03125 -3.65625 C 1.6875 -3.65625 1.492188 -3.390625 1.453125 -2.859375 C 1.429688 -2.671875 1.375 -2.53125 1.28125 -2.4375 C 1.1875 -2.351562 1.054688 -2.3125 0.890625 -2.3125 C 0.722656 -2.3125 0.601562 -2.34375 0.53125 -2.40625 C 0.457031 -2.476562 0.421875 -2.570312 0.421875 -2.6875 C 0.421875 -2.882812 0.53125 -3.070312 0.75 -3.25 C 0.976562 -3.425781 1.253906 -3.566406 1.578125 -3.671875 C 1.898438 -3.785156 2.179688 -3.84375 2.421875 -3.84375 C 2.710938 -3.84375 2.945312 -3.753906 3.125 -3.578125 C 3.300781 -3.398438 3.390625 -3.128906 3.390625 -2.765625 L 3.390625 -1.046875 C 3.390625 -0.859375 3.421875 -0.710938 3.484375 -0.609375 C 3.554688 -0.503906 3.65625 -0.453125 3.78125 -0.453125 C 3.863281 -0.453125 3.957031 -0.476562 4.0625 -0.53125 Z M 2.484375 -0.703125 C 2.472656 -0.722656 2.46875 -0.765625 2.46875 -0.828125 L 2.46875 -1.75 L 2.0625 -1.5625 C 2.039062 -1.550781 1.972656 -1.523438 1.859375 -1.484375 C 1.753906 -1.441406 1.660156 -1.375 1.578125 -1.28125 C 1.492188 -1.1875 1.453125 -1.070312 1.453125 -0.9375 C 1.453125 -0.78125 1.5 -0.660156 1.59375 -0.578125 C 1.695312 -0.492188 1.816406 -0.453125 1.953125 -0.453125 C 2.054688 -0.453125 2.160156 -0.484375 2.265625 -0.546875 Z M 2.484375 -0.703125 "/></g></g></g><g fill="#143c72" fill-opacity="1"><g transform="translate(143.267565, 251.796663)"><g><path d="M 2.90625 -3.84375 C 3.050781 -3.84375 3.191406 -3.785156 3.328125 -3.671875 C 3.472656 -3.566406 3.546875 -3.441406 3.546875 -3.296875 C 3.546875 -3.160156 3.503906 -3.046875 3.421875 -2.953125 C 3.335938 -2.867188 3.222656 -2.828125 3.078125 -2.828125 C 2.984375 -2.828125 2.90625 -2.847656 2.84375 -2.890625 C 2.78125 -2.929688 2.71875 -2.988281 2.65625 -3.0625 C 2.601562 -3.125 2.550781 -3.171875 2.5 -3.203125 C 2.457031 -3.234375 2.410156 -3.25 2.359375 -3.25 C 2.296875 -3.25 2.222656 -3.222656 2.140625 -3.171875 C 2.066406 -3.128906 1.957031 -3.03125 1.8125 -2.875 L 1.8125 -0.78125 C 1.8125 -0.519531 1.867188 -0.34375 1.984375 -0.25 C 2.109375 -0.15625 2.335938 -0.109375 2.671875 -0.109375 C 2.691406 -0.109375 2.703125 -0.0859375 2.703125 -0.046875 C 2.703125 -0.015625 2.691406 0 2.671875 0 C 2.441406 0 2.265625 -0.00390625 2.140625 -0.015625 L 0.78125 -0.015625 C 0.675781 -0.00390625 0.539062 0 0.375 0 C 0.351562 0 0.34375 -0.015625 0.34375 -0.046875 C 0.34375 -0.0859375 0.351562 -0.109375 0.375 -0.109375 C 0.570312 -0.109375 0.707031 -0.15625 0.78125 -0.25 C 0.851562 -0.34375 0.890625 -0.519531 0.890625 -0.78125 L 0.890625 -2.609375 C 0.890625 -2.804688 0.863281 -2.953125 0.8125 -3.046875 C 0.769531 -3.140625 0.695312 -3.1875 0.59375 -3.1875 C 0.476562 -3.1875 0.320312 -3.144531 0.125 -3.0625 L 0.109375 -3.0625 C 0.0859375 -3.0625 0.0703125 -3.078125 0.0625 -3.109375 C 0.0507812 -3.140625 0.0507812 -3.15625 0.0625 -3.15625 L 1.421875 -3.828125 C 1.453125 -3.835938 1.472656 -3.84375 1.484375 -3.84375 C 1.554688 -3.84375 1.625 -3.773438 1.6875 -3.640625 C 1.75 -3.503906 1.785156 -3.328125 1.796875 -3.109375 C 2.054688 -3.378906 2.269531 -3.566406 2.4375 -3.671875 C 2.613281 -3.785156 2.769531 -3.84375 2.90625 -3.84375 Z M 2.90625 -3.84375 "/></g></g></g><g fill="#143c72" fill-opacity="1"><g transform="translate(147.998143, 251.796663)"><g><path d="M 3.140625 -0.671875 C 3.171875 -0.671875 3.191406 -0.660156 3.203125 -0.640625 C 3.222656 -0.617188 3.222656 -0.597656 3.203125 -0.578125 C 2.960938 -0.335938 2.726562 -0.160156 2.5 -0.046875 C 2.269531 0.0546875 2.03125 0.109375 1.78125 0.109375 C 1.5 0.109375 1.253906 0.0390625 1.046875 -0.09375 C 0.847656 -0.226562 0.75 -0.457031 0.75 -0.78125 L 0.75 -2.9375 C 0.75 -3.132812 0.710938 -3.269531 0.640625 -3.34375 C 0.578125 -3.425781 0.453125 -3.46875 0.265625 -3.46875 C 0.253906 -3.46875 0.242188 -3.472656 0.234375 -3.484375 C 0.222656 -3.503906 0.21875 -3.523438 0.21875 -3.546875 C 0.21875 -3.578125 0.222656 -3.597656 0.234375 -3.609375 C 0.242188 -3.628906 0.253906 -3.640625 0.265625 -3.640625 C 0.585938 -3.648438 0.851562 -3.71875 1.0625 -3.84375 C 1.269531 -3.976562 1.425781 -4.175781 1.53125 -4.4375 C 1.539062 -4.46875 1.566406 -4.484375 1.609375 -4.484375 C 1.648438 -4.484375 1.671875 -4.46875 1.671875 -4.4375 L 1.671875 -3.671875 C 2.046875 -3.671875 2.46875 -3.695312 2.9375 -3.75 C 2.945312 -3.75 2.960938 -3.722656 2.984375 -3.671875 C 3.003906 -3.628906 3.015625 -3.578125 3.015625 -3.515625 C 3.015625 -3.453125 3 -3.390625 2.96875 -3.328125 C 2.945312 -3.265625 2.925781 -3.238281 2.90625 -3.25 C 2.476562 -3.34375 2.066406 -3.390625 1.671875 -3.390625 L 1.671875 -1.09375 C 1.671875 -0.851562 1.734375 -0.671875 1.859375 -0.546875 C 1.992188 -0.429688 2.164062 -0.375 2.375 -0.375 C 2.625 -0.375 2.875 -0.472656 3.125 -0.671875 Z M 3.140625 -0.671875 "/></g></g></g><g fill="#143c72" fill-opacity="1"><g transform="translate(152.311996, 251.796663)"><g/></g></g><g fill="#143c72" fill-opacity="1"><g transform="translate(155.63732, 251.796663)"><g><path d="M 8.078125 -0.109375 C 8.097656 -0.109375 8.109375 -0.0859375 8.109375 -0.046875 C 8.109375 -0.015625 8.097656 0 8.078125 0 C 7.859375 0 7.6875 -0.00390625 7.5625 -0.015625 L 6.109375 -0.015625 C 5.984375 -0.00390625 5.816406 0 5.609375 0 C 5.585938 0 5.578125 -0.015625 5.578125 -0.046875 C 5.578125 -0.0859375 5.585938 -0.109375 5.609375 -0.109375 C 5.878906 -0.109375 6.0625 -0.140625 6.15625 -0.203125 C 6.257812 -0.273438 6.3125 -0.414062 6.3125 -0.625 L 6.296875 -0.78125 L 6.09375 -4.75 L 4.09375 -0.0625 C 4.082031 -0.0390625 4.054688 -0.03125 4.015625 -0.03125 C 3.972656 -0.03125 3.945312 -0.0390625 3.9375 -0.0625 L 1.484375 -4.734375 L 1.40625 -1.234375 C 1.394531 -0.878906 1.460938 -0.601562 1.609375 -0.40625 C 1.753906 -0.207031 1.960938 -0.109375 2.234375 -0.109375 C 2.253906 -0.109375 2.265625 -0.0859375 2.265625 -0.046875 C 2.265625 -0.015625 2.253906 0 2.234375 0 C 2.054688 0 1.921875 -0.00390625 1.828125 -0.015625 L 0.671875 -0.015625 C 0.578125 -0.00390625 0.441406 0 0.265625 0 C 0.242188 0 0.234375 -0.015625 0.234375 -0.046875 C 0.234375 -0.0859375 0.242188 -0.109375 0.265625 -0.109375 C 0.523438 -0.109375 0.734375 -0.207031 0.890625 -0.40625 C 1.046875 -0.613281 1.128906 -0.890625 1.140625 -1.234375 L 1.21875 -5.25 L 1.21875 -5.265625 C 1.082031 -5.503906 0.945312 -5.675781 0.8125 -5.78125 C 0.675781 -5.894531 0.515625 -5.953125 0.328125 -5.953125 C 0.304688 -5.953125 0.296875 -5.96875 0.296875 -6 C 0.296875 -6.039062 0.304688 -6.0625 0.328125 -6.0625 L 0.78125 -6.0625 C 0.875 -6.050781 0.992188 -6.046875 1.140625 -6.046875 L 1.65625 -6.0625 C 1.707031 -6.0625 1.78125 -6.0625 1.875 -6.0625 C 1.957031 -6.0625 2.019531 -6.03125 2.0625 -5.96875 C 2.113281 -5.914062 2.195312 -5.78125 2.3125 -5.5625 L 4.4375 -1.59375 L 6.28125 -5.828125 C 6.320312 -5.910156 6.363281 -5.96875 6.40625 -6 C 6.445312 -6.039062 6.5 -6.0625 6.5625 -6.0625 C 6.625 -6.0625 6.691406 -6.054688 6.765625 -6.046875 C 6.835938 -6.046875 6.925781 -6.046875 7.03125 -6.046875 L 7.59375 -6.0625 C 7.6875 -6.0625 7.816406 -6.0625 7.984375 -6.0625 C 8.003906 -6.0625 8.015625 -6.039062 8.015625 -6 C 8.015625 -5.96875 8.003906 -5.953125 7.984375 -5.953125 C 7.679688 -5.953125 7.460938 -5.890625 7.328125 -5.765625 C 7.191406 -5.640625 7.128906 -5.445312 7.140625 -5.1875 L 7.375 -0.78125 C 7.382812 -0.582031 7.40625 -0.4375 7.4375 -0.34375 C 7.476562 -0.257812 7.546875 -0.195312 7.640625 -0.15625 C 7.734375 -0.125 7.878906 -0.109375 8.078125 -0.109375 Z M 8.078125 -0.109375 "/></g></g></g><g fill="#143c72" fill-opacity="1"><g transform="translate(165.000363, 251.796663)"><g><path d="M 2.296875 0.125 C 1.898438 0.125 1.550781 0.0351562 1.25 -0.140625 C 0.945312 -0.328125 0.710938 -0.578125 0.546875 -0.890625 C 0.390625 -1.210938 0.3125 -1.554688 0.3125 -1.921875 C 0.3125 -2.335938 0.414062 -2.691406 0.625 -2.984375 C 0.84375 -3.285156 1.113281 -3.507812 1.4375 -3.65625 C 1.769531 -3.800781 2.113281 -3.875 2.46875 -3.875 C 2.863281 -3.875 3.207031 -3.78125 3.5 -3.59375 C 3.800781 -3.40625 4.03125 -3.15625 4.1875 -2.84375 C 4.351562 -2.539062 4.4375 -2.210938 4.4375 -1.859375 C 4.4375 -1.472656 4.335938 -1.128906 4.140625 -0.828125 C 3.953125 -0.523438 3.691406 -0.289062 3.359375 -0.125 C 3.035156 0.0390625 2.679688 0.125 2.296875 0.125 Z M 2.59375 -0.078125 C 2.84375 -0.078125 3.03125 -0.203125 3.15625 -0.453125 C 3.289062 -0.703125 3.359375 -1.054688 3.359375 -1.515625 C 3.359375 -1.972656 3.300781 -2.363281 3.1875 -2.6875 C 3.070312 -3.007812 2.921875 -3.253906 2.734375 -3.421875 C 2.546875 -3.585938 2.347656 -3.671875 2.140625 -3.671875 C 1.617188 -3.671875 1.359375 -3.207031 1.359375 -2.28125 C 1.359375 -1.84375 1.410156 -1.457031 1.515625 -1.125 C 1.628906 -0.789062 1.78125 -0.53125 1.96875 -0.34375 C 2.15625 -0.164062 2.363281 -0.078125 2.59375 -0.078125 Z M 2.59375 -0.078125 "/></g></g></g><g fill="#143c72" fill-opacity="1"><g transform="translate(170.796993, 251.796663)"><g><path d="M 4.9375 -0.109375 C 4.957031 -0.109375 4.96875 -0.0859375 4.96875 -0.046875 C 4.96875 -0.015625 4.957031 0 4.9375 0 C 4.769531 0 4.640625 -0.00390625 4.546875 -0.015625 L 3.390625 -0.015625 C 3.285156 -0.00390625 3.148438 0 2.984375 0 C 2.960938 0 2.953125 -0.015625 2.953125 -0.046875 C 2.953125 -0.0859375 2.960938 -0.109375 2.984375 -0.109375 C 3.191406 -0.109375 3.328125 -0.15625 3.390625 -0.25 C 3.460938 -0.34375 3.5 -0.519531 3.5 -0.78125 L 3.5 -2.1875 C 3.5 -2.53125 3.4375 -2.785156 3.3125 -2.953125 C 3.1875 -3.128906 2.988281 -3.21875 2.71875 -3.21875 C 2.5625 -3.21875 2.398438 -3.179688 2.234375 -3.109375 C 2.066406 -3.046875 1.925781 -2.960938 1.8125 -2.859375 L 1.8125 -0.78125 C 1.8125 -0.519531 1.847656 -0.34375 1.921875 -0.25 C 1.992188 -0.15625 2.128906 -0.109375 2.328125 -0.109375 C 2.347656 -0.109375 2.359375 -0.0859375 2.359375 -0.046875 C 2.359375 -0.015625 2.347656 0 2.328125 0 C 2.160156 0 2.03125 -0.00390625 1.9375 -0.015625 L 0.78125 -0.015625 C 0.675781 -0.00390625 0.539062 0 0.375 0 C 0.351562 0 0.34375 -0.015625 0.34375 -0.046875 C 0.34375 -0.0859375 0.351562 -0.109375 0.375 -0.109375 C 0.570312 -0.109375 0.707031 -0.15625 0.78125 -0.25 C 0.851562 -0.34375 0.890625 -0.519531 0.890625 -0.78125 L 0.890625 -2.609375 C 0.890625 -2.804688 0.863281 -2.953125 0.8125 -3.046875 C 0.769531 -3.140625 0.695312 -3.1875 0.59375 -3.1875 C 0.476562 -3.1875 0.320312 -3.144531 0.125 -3.0625 L 0.109375 -3.0625 C 0.0859375 -3.0625 0.0703125 -3.078125 0.0625 -3.109375 C 0.0507812 -3.140625 0.0507812 -3.15625 0.0625 -3.15625 L 1.421875 -3.828125 C 1.453125 -3.835938 1.472656 -3.84375 1.484375 -3.84375 C 1.554688 -3.84375 1.625 -3.769531 1.6875 -3.625 C 1.75 -3.488281 1.789062 -3.300781 1.8125 -3.0625 C 2.25 -3.59375 2.738281 -3.859375 3.28125 -3.859375 C 3.625 -3.859375 3.898438 -3.742188 4.109375 -3.515625 C 4.316406 -3.296875 4.421875 -3.007812 4.421875 -2.65625 L 4.421875 -0.78125 C 4.421875 -0.519531 4.457031 -0.34375 4.53125 -0.25 C 4.601562 -0.15625 4.738281 -0.109375 4.9375 -0.109375 Z M 4.9375 -0.109375 "/></g></g></g><g fill="#143c72" fill-opacity="1"><g transform="translate(176.9522, 251.796663)"><g><path d="M 3.765625 -0.640625 C 3.773438 -0.640625 3.785156 -0.625 3.796875 -0.59375 C 3.816406 -0.570312 3.820312 -0.554688 3.8125 -0.546875 C 3.570312 -0.304688 3.328125 -0.132812 3.078125 -0.03125 C 2.835938 0.0625 2.570312 0.109375 2.28125 0.109375 C 1.875 0.109375 1.519531 0.0234375 1.21875 -0.140625 C 0.925781 -0.304688 0.703125 -0.535156 0.546875 -0.828125 C 0.390625 -1.117188 0.3125 -1.429688 0.3125 -1.765625 C 0.3125 -2.140625 0.40625 -2.484375 0.59375 -2.796875 C 0.78125 -3.117188 1.039062 -3.367188 1.375 -3.546875 C 1.707031 -3.734375 2.082031 -3.828125 2.5 -3.828125 C 2.90625 -3.828125 3.21875 -3.738281 3.4375 -3.5625 C 3.65625 -3.382812 3.765625 -3.101562 3.765625 -2.71875 C 3.765625 -2.519531 3.726562 -2.421875 3.65625 -2.421875 L 1.296875 -2.40625 C 1.296875 -2.363281 1.296875 -2.289062 1.296875 -2.1875 C 1.296875 -1.613281 1.425781 -1.164062 1.6875 -0.84375 C 1.945312 -0.519531 2.320312 -0.359375 2.8125 -0.359375 C 2.988281 -0.359375 3.132812 -0.375 3.25 -0.40625 C 3.375 -0.445312 3.539062 -0.519531 3.75 -0.625 Z M 2.140625 -3.640625 C 1.921875 -3.640625 1.738281 -3.546875 1.59375 -3.359375 C 1.457031 -3.171875 1.363281 -2.914062 1.3125 -2.59375 L 2.734375 -2.625 C 2.722656 -2.945312 2.671875 -3.195312 2.578125 -3.375 C 2.484375 -3.550781 2.335938 -3.640625 2.140625 -3.640625 Z M 2.140625 -3.640625 "/></g></g></g><g fill="#143c72" fill-opacity="1"><g transform="translate(182.060739, 251.796663)"><g><path d="M 4.28125 -3.75 C 4.289062 -3.75 4.296875 -3.726562 4.296875 -3.6875 C 4.296875 -3.644531 4.289062 -3.625 4.28125 -3.625 C 4.070312 -3.625 3.890625 -3.535156 3.734375 -3.359375 C 3.585938 -3.179688 3.453125 -2.925781 3.328125 -2.59375 L 2.25 0.265625 C 1.90625 1.171875 1.578125 1.804688 1.265625 2.171875 C 0.953125 2.546875 0.601562 2.734375 0.21875 2.734375 C 0.03125 2.734375 -0.113281 2.691406 -0.21875 2.609375 C -0.320312 2.523438 -0.375 2.40625 -0.375 2.25 C -0.375 2.101562 -0.328125 1.988281 -0.234375 1.90625 C -0.148438 1.832031 -0.0390625 1.796875 0.09375 1.796875 C 0.15625 1.796875 0.210938 1.804688 0.265625 1.828125 C 0.316406 1.847656 0.378906 1.878906 0.453125 1.921875 C 0.566406 2.003906 0.679688 2.046875 0.796875 2.046875 C 0.941406 2.046875 1.070312 1.988281 1.1875 1.875 C 1.3125 1.757812 1.4375 1.570312 1.5625 1.3125 C 1.695312 1.050781 1.851562 0.675781 2.03125 0.1875 L 0.484375 -2.9375 C 0.335938 -3.21875 0.222656 -3.398438 0.140625 -3.484375 C 0.0664062 -3.578125 -0.0234375 -3.625 -0.140625 -3.625 C -0.160156 -3.625 -0.171875 -3.644531 -0.171875 -3.6875 C -0.171875 -3.726562 -0.160156 -3.75 -0.140625 -3.75 C 0.0351562 -3.75 0.171875 -3.742188 0.265625 -3.734375 L 0.671875 -3.71875 L 1.34375 -3.734375 C 1.445312 -3.742188 1.585938 -3.75 1.765625 -3.75 C 1.785156 -3.75 1.796875 -3.726562 1.796875 -3.6875 C 1.796875 -3.644531 1.785156 -3.625 1.765625 -3.625 C 1.597656 -3.625 1.472656 -3.609375 1.390625 -3.578125 C 1.316406 -3.554688 1.28125 -3.507812 1.28125 -3.4375 C 1.28125 -3.382812 1.300781 -3.320312 1.34375 -3.25 L 2.484375 -0.90625 L 3.0625 -2.59375 C 3.125 -2.769531 3.15625 -2.925781 3.15625 -3.0625 C 3.15625 -3.238281 3.101562 -3.375 3 -3.46875 C 2.894531 -3.570312 2.742188 -3.625 2.546875 -3.625 C 2.535156 -3.625 2.53125 -3.644531 2.53125 -3.6875 C 2.53125 -3.726562 2.535156 -3.75 2.546875 -3.75 C 2.722656 -3.75 2.859375 -3.742188 2.953125 -3.734375 L 3.53125 -3.71875 L 3.921875 -3.734375 C 3.992188 -3.742188 4.113281 -3.75 4.28125 -3.75 Z M 4.28125 -3.75 "/></g></g></g><g fill="#143c72" fill-opacity="1"><g transform="translate(187.256494, 251.796663)"><g/></g></g><g fill="#143c72" fill-opacity="1"><g transform="translate(190.581815, 251.796663)"><g><path d="M 8.078125 -0.109375 C 8.097656 -0.109375 8.109375 -0.0859375 8.109375 -0.046875 C 8.109375 -0.015625 8.097656 0 8.078125 0 C 7.859375 0 7.6875 -0.00390625 7.5625 -0.015625 L 6.109375 -0.015625 C 5.984375 -0.00390625 5.816406 0 5.609375 0 C 5.585938 0 5.578125 -0.015625 5.578125 -0.046875 C 5.578125 -0.0859375 5.585938 -0.109375 5.609375 -0.109375 C 5.878906 -0.109375 6.0625 -0.140625 6.15625 -0.203125 C 6.257812 -0.273438 6.3125 -0.414062 6.3125 -0.625 L 6.296875 -0.78125 L 6.09375 -4.75 L 4.09375 -0.0625 C 4.082031 -0.0390625 4.054688 -0.03125 4.015625 -0.03125 C 3.972656 -0.03125 3.945312 -0.0390625 3.9375 -0.0625 L 1.484375 -4.734375 L 1.40625 -1.234375 C 1.394531 -0.878906 1.460938 -0.601562 1.609375 -0.40625 C 1.753906 -0.207031 1.960938 -0.109375 2.234375 -0.109375 C 2.253906 -0.109375 2.265625 -0.0859375 2.265625 -0.046875 C 2.265625 -0.015625 2.253906 0 2.234375 0 C 2.054688 0 1.921875 -0.00390625 1.828125 -0.015625 L 0.671875 -0.015625 C 0.578125 -0.00390625 0.441406 0 0.265625 0 C 0.242188 0 0.234375 -0.015625 0.234375 -0.046875 C 0.234375 -0.0859375 0.242188 -0.109375 0.265625 -0.109375 C 0.523438 -0.109375 0.734375 -0.207031 0.890625 -0.40625 C 1.046875 -0.613281 1.128906 -0.890625 1.140625 -1.234375 L 1.21875 -5.25 L 1.21875 -5.265625 C 1.082031 -5.503906 0.945312 -5.675781 0.8125 -5.78125 C 0.675781 -5.894531 0.515625 -5.953125 0.328125 -5.953125 C 0.304688 -5.953125 0.296875 -5.96875 0.296875 -6 C 0.296875 -6.039062 0.304688 -6.0625 0.328125 -6.0625 L 0.78125 -6.0625 C 0.875 -6.050781 0.992188 -6.046875 1.140625 -6.046875 L 1.65625 -6.0625 C 1.707031 -6.0625 1.78125 -6.0625 1.875 -6.0625 C 1.957031 -6.0625 2.019531 -6.03125 2.0625 -5.96875 C 2.113281 -5.914062 2.195312 -5.78125 2.3125 -5.5625 L 4.4375 -1.59375 L 6.28125 -5.828125 C 6.320312 -5.910156 6.363281 -5.96875 6.40625 -6 C 6.445312 -6.039062 6.5 -6.0625 6.5625 -6.0625 C 6.625 -6.0625 6.691406 -6.054688 6.765625 -6.046875 C 6.835938 -6.046875 6.925781 -6.046875 7.03125 -6.046875 L 7.59375 -6.0625 C 7.6875 -6.0625 7.816406 -6.0625 7.984375 -6.0625 C 8.003906 -6.0625 8.015625 -6.039062 8.015625 -6 C 8.015625 -5.96875 8.003906 -5.953125 7.984375 -5.953125 C 7.679688 -5.953125 7.460938 -5.890625 7.328125 -5.765625 C 7.191406 -5.640625 7.128906 -5.445312 7.140625 -5.1875 L 7.375 -0.78125 C 7.382812 -0.582031 7.40625 -0.4375 7.4375 -0.34375 C 7.476562 -0.257812 7.546875 -0.195312 7.640625 -0.15625 C 7.734375 -0.125 7.878906 -0.109375 8.078125 -0.109375 Z M 8.078125 -0.109375 "/></g></g></g><g fill="#143c72" fill-opacity="1"><g transform="translate(199.944855, 251.796663)"><g><path d="M 4.0625 -0.53125 C 4.09375 -0.53125 4.113281 -0.515625 4.125 -0.484375 C 4.132812 -0.453125 4.125 -0.429688 4.09375 -0.421875 L 3.09375 0.0625 C 3.070312 0.0703125 3.039062 0.078125 3 0.078125 C 2.894531 0.078125 2.796875 0.0234375 2.703125 -0.078125 C 2.609375 -0.191406 2.539062 -0.34375 2.5 -0.53125 L 2.09375 -0.25 C 1.9375 -0.132812 1.789062 -0.0507812 1.65625 0 C 1.53125 0.0390625 1.390625 0.0625 1.234375 0.0625 C 0.953125 0.0625 0.738281 0.00390625 0.59375 -0.109375 C 0.457031 -0.234375 0.390625 -0.40625 0.390625 -0.625 C 0.390625 -0.800781 0.429688 -0.941406 0.515625 -1.046875 C 0.597656 -1.160156 0.703125 -1.242188 0.828125 -1.296875 C 0.953125 -1.359375 1.128906 -1.429688 1.359375 -1.515625 L 1.59375 -1.59375 L 2.46875 -1.921875 L 2.46875 -2.46875 C 2.46875 -2.882812 2.429688 -3.1875 2.359375 -3.375 C 2.296875 -3.5625 2.1875 -3.65625 2.03125 -3.65625 C 1.6875 -3.65625 1.492188 -3.390625 1.453125 -2.859375 C 1.429688 -2.671875 1.375 -2.53125 1.28125 -2.4375 C 1.1875 -2.351562 1.054688 -2.3125 0.890625 -2.3125 C 0.722656 -2.3125 0.601562 -2.34375 0.53125 -2.40625 C 0.457031 -2.476562 0.421875 -2.570312 0.421875 -2.6875 C 0.421875 -2.882812 0.53125 -3.070312 0.75 -3.25 C 0.976562 -3.425781 1.253906 -3.566406 1.578125 -3.671875 C 1.898438 -3.785156 2.179688 -3.84375 2.421875 -3.84375 C 2.710938 -3.84375 2.945312 -3.753906 3.125 -3.578125 C 3.300781 -3.398438 3.390625 -3.128906 3.390625 -2.765625 L 3.390625 -1.046875 C 3.390625 -0.859375 3.421875 -0.710938 3.484375 -0.609375 C 3.554688 -0.503906 3.65625 -0.453125 3.78125 -0.453125 C 3.863281 -0.453125 3.957031 -0.476562 4.0625 -0.53125 Z M 2.484375 -0.703125 C 2.472656 -0.722656 2.46875 -0.765625 2.46875 -0.828125 L 2.46875 -1.75 L 2.0625 -1.5625 C 2.039062 -1.550781 1.972656 -1.523438 1.859375 -1.484375 C 1.753906 -1.441406 1.660156 -1.375 1.578125 -1.28125 C 1.492188 -1.1875 1.453125 -1.070312 1.453125 -0.9375 C 1.453125 -0.78125 1.5 -0.660156 1.59375 -0.578125 C 1.695312 -0.492188 1.816406 -0.453125 1.953125 -0.453125 C 2.054688 -0.453125 2.160156 -0.484375 2.265625 -0.546875 Z M 2.484375 -0.703125 "/></g></g></g><g fill="#143c72" fill-opacity="1"><g transform="translate(205.082463, 251.796663)"><g><path d="M 4.875 -0.625 C 4.894531 -0.625 4.910156 -0.609375 4.921875 -0.578125 C 4.941406 -0.546875 4.945312 -0.53125 4.9375 -0.53125 L 3.59375 0.125 L 3.546875 0.140625 C 3.492188 0.140625 3.441406 0.078125 3.390625 -0.046875 C 3.335938 -0.171875 3.304688 -0.335938 3.296875 -0.546875 C 2.816406 -0.0976562 2.328125 0.125 1.828125 0.125 C 1.546875 0.125 1.289062 0.0507812 1.0625 -0.09375 C 0.832031 -0.238281 0.648438 -0.457031 0.515625 -0.75 C 0.378906 -1.039062 0.3125 -1.378906 0.3125 -1.765625 C 0.3125 -2.253906 0.425781 -2.65625 0.65625 -2.96875 C 0.882812 -3.28125 1.164062 -3.507812 1.5 -3.65625 C 1.84375 -3.800781 2.1875 -3.875 2.53125 -3.875 C 2.769531 -3.875 3.023438 -3.832031 3.296875 -3.75 L 3.296875 -5.71875 C 3.296875 -5.945312 3.269531 -6.109375 3.21875 -6.203125 C 3.175781 -6.296875 3.109375 -6.34375 3.015625 -6.34375 C 2.921875 -6.34375 2.800781 -6.304688 2.65625 -6.234375 L 2.640625 -6.234375 C 2.609375 -6.234375 2.582031 -6.25 2.5625 -6.28125 C 2.550781 -6.320312 2.554688 -6.347656 2.578125 -6.359375 L 4 -7.03125 L 4.03125 -7.03125 C 4.0625 -7.03125 4.097656 -7.015625 4.140625 -6.984375 C 4.179688 -6.960938 4.203125 -6.9375 4.203125 -6.90625 L 4.203125 -1.125 C 4.203125 -0.90625 4.222656 -0.75 4.265625 -0.65625 C 4.304688 -0.570312 4.375 -0.53125 4.46875 -0.53125 C 4.550781 -0.53125 4.6875 -0.5625 4.875 -0.625 Z M 2.375 -0.34375 C 2.695312 -0.34375 3.003906 -0.476562 3.296875 -0.75 L 3.296875 -3.15625 C 3.171875 -3.3125 3.035156 -3.425781 2.890625 -3.5 C 2.742188 -3.582031 2.578125 -3.625 2.390625 -3.625 C 2.035156 -3.625 1.765625 -3.5 1.578125 -3.25 C 1.398438 -3.007812 1.3125 -2.617188 1.3125 -2.078125 C 1.3125 -1.535156 1.40625 -1.109375 1.59375 -0.796875 C 1.789062 -0.492188 2.050781 -0.34375 2.375 -0.34375 Z M 2.375 -0.34375 "/></g></g></g><g fill="#143c72" fill-opacity="1"><g transform="translate(211.082599, 251.796663)"><g><path d="M 3.765625 -0.640625 C 3.773438 -0.640625 3.785156 -0.625 3.796875 -0.59375 C 3.816406 -0.570312 3.820312 -0.554688 3.8125 -0.546875 C 3.570312 -0.304688 3.328125 -0.132812 3.078125 -0.03125 C 2.835938 0.0625 2.570312 0.109375 2.28125 0.109375 C 1.875 0.109375 1.519531 0.0234375 1.21875 -0.140625 C 0.925781 -0.304688 0.703125 -0.535156 0.546875 -0.828125 C 0.390625 -1.117188 0.3125 -1.429688 0.3125 -1.765625 C 0.3125 -2.140625 0.40625 -2.484375 0.59375 -2.796875 C 0.78125 -3.117188 1.039062 -3.367188 1.375 -3.546875 C 1.707031 -3.734375 2.082031 -3.828125 2.5 -3.828125 C 2.90625 -3.828125 3.21875 -3.738281 3.4375 -3.5625 C 3.65625 -3.382812 3.765625 -3.101562 3.765625 -2.71875 C 3.765625 -2.519531 3.726562 -2.421875 3.65625 -2.421875 L 1.296875 -2.40625 C 1.296875 -2.363281 1.296875 -2.289062 1.296875 -2.1875 C 1.296875 -1.613281 1.425781 -1.164062 1.6875 -0.84375 C 1.945312 -0.519531 2.320312 -0.359375 2.8125 -0.359375 C 2.988281 -0.359375 3.132812 -0.375 3.25 -0.40625 C 3.375 -0.445312 3.539062 -0.519531 3.75 -0.625 Z M 2.140625 -3.640625 C 1.921875 -3.640625 1.738281 -3.546875 1.59375 -3.359375 C 1.457031 -3.171875 1.363281 -2.914062 1.3125 -2.59375 L 2.734375 -2.625 C 2.722656 -2.945312 2.671875 -3.195312 2.578125 -3.375 C 2.484375 -3.550781 2.335938 -3.640625 2.140625 -3.640625 Z M 2.140625 -3.640625 "/></g></g></g><g fill="#143c72" fill-opacity="1"><g transform="translate(216.191139, 251.796663)"><g/></g></g><g fill="#143c72" fill-opacity="1"><g transform="translate(219.51646, 251.796663)"><g><path d="M 1.6875 -5.078125 C 1.6875 -4.847656 1.742188 -4.640625 1.859375 -4.453125 C 1.984375 -4.273438 2.132812 -4.117188 2.3125 -3.984375 C 2.488281 -3.847656 2.722656 -3.6875 3.015625 -3.5 C 3.335938 -3.289062 3.59375 -3.109375 3.78125 -2.953125 C 3.976562 -2.796875 4.144531 -2.601562 4.28125 -2.375 C 4.425781 -2.15625 4.5 -1.898438 4.5 -1.609375 C 4.5 -1.273438 4.40625 -0.972656 4.21875 -0.703125 C 4.039062 -0.441406 3.789062 -0.238281 3.46875 -0.09375 C 3.144531 0.0390625 2.785156 0.109375 2.390625 0.109375 C 2.097656 0.109375 1.796875 0.0703125 1.484375 0 C 1.171875 -0.0820312 0.957031 -0.171875 0.84375 -0.265625 C 0.8125 -0.296875 0.785156 -0.320312 0.765625 -0.34375 C 0.753906 -0.363281 0.75 -0.398438 0.75 -0.453125 L 0.71875 -2 L 0.71875 -2.015625 C 0.71875 -2.035156 0.734375 -2.046875 0.765625 -2.046875 C 0.796875 -2.054688 0.816406 -2.046875 0.828125 -2.015625 C 1.015625 -1.617188 1.179688 -1.296875 1.328125 -1.046875 C 1.472656 -0.804688 1.65625 -0.59375 1.875 -0.40625 C 2.101562 -0.21875 2.363281 -0.125 2.65625 -0.125 C 2.90625 -0.125 3.113281 -0.191406 3.28125 -0.328125 C 3.457031 -0.472656 3.546875 -0.710938 3.546875 -1.046875 C 3.546875 -1.328125 3.476562 -1.570312 3.34375 -1.78125 C 3.21875 -2 3.066406 -2.179688 2.890625 -2.328125 C 2.710938 -2.484375 2.460938 -2.664062 2.140625 -2.875 C 1.828125 -3.070312 1.585938 -3.238281 1.421875 -3.375 C 1.253906 -3.519531 1.109375 -3.691406 0.984375 -3.890625 C 0.859375 -4.097656 0.796875 -4.335938 0.796875 -4.609375 C 0.796875 -4.953125 0.894531 -5.238281 1.09375 -5.46875 C 1.289062 -5.707031 1.539062 -5.882812 1.84375 -6 C 2.15625 -6.113281 2.484375 -6.171875 2.828125 -6.171875 C 3.054688 -6.171875 3.285156 -6.148438 3.515625 -6.109375 C 3.753906 -6.066406 3.941406 -6.015625 4.078125 -5.953125 C 4.140625 -5.929688 4.179688 -5.90625 4.203125 -5.875 C 4.222656 -5.84375 4.234375 -5.804688 4.234375 -5.765625 L 4.234375 -4.34375 C 4.234375 -4.320312 4.21875 -4.304688 4.1875 -4.296875 C 4.15625 -4.285156 4.132812 -4.289062 4.125 -4.3125 L 4.046875 -4.5 C 3.878906 -4.90625 3.6875 -5.25 3.46875 -5.53125 C 3.257812 -5.8125 2.960938 -5.953125 2.578125 -5.953125 C 2.316406 -5.953125 2.101562 -5.878906 1.9375 -5.734375 C 1.769531 -5.585938 1.6875 -5.367188 1.6875 -5.078125 Z M 1.6875 -5.078125 "/></g></g></g><g fill="#143c72" fill-opacity="1"><g transform="translate(225.565062, 251.796663)"><g><path d="M 1.3125 -4.796875 C 1.125 -4.796875 0.976562 -4.847656 0.875 -4.953125 C 0.769531 -5.054688 0.71875 -5.203125 0.71875 -5.390625 C 0.71875 -5.554688 0.769531 -5.691406 0.875 -5.796875 C 0.976562 -5.898438 1.125 -5.953125 1.3125 -5.953125 C 1.488281 -5.953125 1.625 -5.898438 1.71875 -5.796875 C 1.820312 -5.703125 1.875 -5.566406 1.875 -5.390625 C 1.875 -5.203125 1.820312 -5.054688 1.71875 -4.953125 C 1.625 -4.847656 1.488281 -4.796875 1.3125 -4.796875 Z M 0.375 0 C 0.351562 0 0.34375 -0.015625 0.34375 -0.046875 C 0.34375 -0.0859375 0.351562 -0.109375 0.375 -0.109375 C 0.570312 -0.109375 0.707031 -0.15625 0.78125 -0.25 C 0.851562 -0.34375 0.890625 -0.519531 0.890625 -0.78125 L 0.890625 -2.515625 C 0.890625 -2.742188 0.863281 -2.90625 0.8125 -3 C 0.769531 -3.09375 0.703125 -3.140625 0.609375 -3.140625 C 0.515625 -3.140625 0.394531 -3.101562 0.25 -3.03125 L 0.234375 -3.03125 C 0.203125 -3.03125 0.179688 -3.046875 0.171875 -3.078125 C 0.160156 -3.117188 0.164062 -3.144531 0.1875 -3.15625 L 1.65625 -3.828125 L 1.671875 -3.84375 C 1.710938 -3.84375 1.75 -3.828125 1.78125 -3.796875 C 1.8125 -3.765625 1.828125 -3.734375 1.828125 -3.703125 L 1.828125 -3.5 C 1.816406 -3.238281 1.8125 -2.921875 1.8125 -2.546875 L 1.8125 -0.78125 C 1.8125 -0.519531 1.847656 -0.34375 1.921875 -0.25 C 1.992188 -0.15625 2.128906 -0.109375 2.328125 -0.109375 C 2.347656 -0.109375 2.359375 -0.0859375 2.359375 -0.046875 C 2.359375 -0.015625 2.347656 0 2.328125 0 C 2.160156 0 2.03125 -0.00390625 1.9375 -0.015625 L 0.78125 -0.015625 C 0.675781 -0.00390625 0.539062 0 0.375 0 Z M 0.375 0 "/></g></g></g><g fill="#143c72" fill-opacity="1"><g transform="translate(229.171439, 251.796663)"><g><path d="M 7.359375 -0.109375 C 7.390625 -0.109375 7.40625 -0.0859375 7.40625 -0.046875 C 7.40625 -0.015625 7.390625 0 7.359375 0 C 7.191406 0 7.0625 -0.00390625 6.96875 -0.015625 L 5.828125 -0.015625 C 5.722656 -0.00390625 5.585938 0 5.421875 0 C 5.398438 0 5.390625 -0.015625 5.390625 -0.046875 C 5.390625 -0.0859375 5.398438 -0.109375 5.421875 -0.109375 C 5.617188 -0.109375 5.753906 -0.15625 5.828125 -0.25 C 5.898438 -0.34375 5.9375 -0.519531 5.9375 -0.78125 L 5.9375 -2.1875 C 5.9375 -2.53125 5.875 -2.785156 5.75 -2.953125 C 5.632812 -3.128906 5.453125 -3.21875 5.203125 -3.21875 C 5.035156 -3.21875 4.867188 -3.179688 4.703125 -3.109375 C 4.546875 -3.035156 4.410156 -2.9375 4.296875 -2.8125 L 4.296875 -0.78125 C 4.296875 -0.519531 4.332031 -0.34375 4.40625 -0.25 C 4.476562 -0.15625 4.617188 -0.109375 4.828125 -0.109375 C 4.847656 -0.109375 4.859375 -0.0859375 4.859375 -0.046875 C 4.859375 -0.015625 4.847656 0 4.828125 0 C 4.648438 0 4.515625 -0.00390625 4.421875 -0.015625 L 3.28125 -0.015625 C 3.175781 -0.00390625 3.039062 0 2.875 0 C 2.851562 0 2.84375 -0.015625 2.84375 -0.046875 C 2.84375 -0.0859375 2.851562 -0.109375 2.875 -0.109375 C 3.070312 -0.109375 3.207031 -0.15625 3.28125 -0.25 C 3.351562 -0.34375 3.390625 -0.519531 3.390625 -0.78125 L 3.390625 -2.1875 C 3.390625 -2.53125 3.328125 -2.785156 3.203125 -2.953125 C 3.085938 -3.128906 2.910156 -3.21875 2.671875 -3.21875 C 2.515625 -3.21875 2.359375 -3.1875 2.203125 -3.125 C 2.054688 -3.0625 1.925781 -2.972656 1.8125 -2.859375 L 1.8125 -0.78125 C 1.8125 -0.519531 1.847656 -0.34375 1.921875 -0.25 C 1.992188 -0.15625 2.128906 -0.109375 2.328125 -0.109375 C 2.347656 -0.109375 2.359375 -0.0859375 2.359375 -0.046875 C 2.359375 -0.015625 2.347656 0 2.328125 0 C 2.160156 0 2.03125 -0.00390625 1.9375 -0.015625 L 0.78125 -0.015625 C 0.675781 -0.00390625 0.539062 0 0.375 0 C 0.351562 0 0.34375 -0.015625 0.34375 -0.046875 C 0.34375 -0.0859375 0.351562 -0.109375 0.375 -0.109375 C 0.570312 -0.109375 0.707031 -0.15625 0.78125 -0.25 C 0.851562 -0.34375 0.890625 -0.519531 0.890625 -0.78125 L 0.890625 -2.609375 C 0.890625 -2.804688 0.863281 -2.953125 0.8125 -3.046875 C 0.769531 -3.140625 0.695312 -3.1875 0.59375 -3.1875 C 0.476562 -3.1875 0.320312 -3.144531 0.125 -3.0625 L 0.109375 -3.0625 C 0.0859375 -3.0625 0.0703125 -3.078125 0.0625 -3.109375 C 0.0507812 -3.140625 0.0507812 -3.15625 0.0625 -3.15625 L 1.421875 -3.828125 C 1.453125 -3.835938 1.472656 -3.84375 1.484375 -3.84375 C 1.554688 -3.84375 1.625 -3.769531 1.6875 -3.625 C 1.75 -3.488281 1.789062 -3.304688 1.8125 -3.078125 C 2.25 -3.597656 2.71875 -3.859375 3.21875 -3.859375 C 3.519531 -3.859375 3.757812 -3.785156 3.9375 -3.640625 C 4.125 -3.492188 4.238281 -3.28125 4.28125 -3 C 4.726562 -3.570312 5.222656 -3.859375 5.765625 -3.859375 C 6.109375 -3.859375 6.375 -3.757812 6.5625 -3.5625 C 6.75 -3.363281 6.84375 -3.0625 6.84375 -2.65625 L 6.84375 -0.78125 C 6.84375 -0.519531 6.878906 -0.34375 6.953125 -0.25 C 7.023438 -0.15625 7.160156 -0.109375 7.359375 -0.109375 Z M 7.359375 -0.109375 "/></g></g></g><g fill="#143c72" fill-opacity="1"><g transform="translate(237.759176, 251.796663)"><g><path d="M 2.53125 0.125 C 2.21875 0.125 1.941406 0.0859375 1.703125 0.015625 L 1.703125 1.875 C 1.703125 2.070312 1.722656 2.210938 1.765625 2.296875 C 1.804688 2.390625 1.882812 2.453125 2 2.484375 C 2.125 2.523438 2.3125 2.546875 2.5625 2.546875 C 2.582031 2.546875 2.59375 2.566406 2.59375 2.609375 C 2.59375 2.648438 2.582031 2.671875 2.5625 2.671875 C 2.320312 2.671875 2.132812 2.664062 2 2.65625 L 0.65625 2.65625 C 0.5625 2.664062 0.425781 2.671875 0.25 2.671875 C 0.226562 2.671875 0.21875 2.648438 0.21875 2.609375 C 0.21875 2.566406 0.226562 2.546875 0.25 2.546875 C 0.40625 2.546875 0.519531 2.523438 0.59375 2.484375 C 0.664062 2.453125 0.71875 2.390625 0.75 2.296875 C 0.78125 2.210938 0.796875 2.070312 0.796875 1.875 L 0.796875 -2.609375 C 0.796875 -2.816406 0.769531 -2.960938 0.71875 -3.046875 C 0.675781 -3.140625 0.597656 -3.1875 0.484375 -3.1875 C 0.378906 -3.1875 0.226562 -3.144531 0.03125 -3.0625 L 0.015625 -3.0625 C -0.00390625 -3.0625 -0.0195312 -3.078125 -0.03125 -3.109375 C -0.0507812 -3.140625 -0.0507812 -3.15625 -0.03125 -3.15625 L 1.34375 -3.828125 C 1.351562 -3.835938 1.367188 -3.84375 1.390625 -3.84375 C 1.453125 -3.84375 1.507812 -3.785156 1.5625 -3.671875 C 1.625 -3.566406 1.660156 -3.421875 1.671875 -3.234375 C 2.148438 -3.660156 2.640625 -3.875 3.140625 -3.875 C 3.410156 -3.875 3.660156 -3.800781 3.890625 -3.65625 C 4.128906 -3.507812 4.316406 -3.300781 4.453125 -3.03125 C 4.597656 -2.757812 4.671875 -2.445312 4.671875 -2.09375 C 4.671875 -1.570312 4.5625 -1.144531 4.34375 -0.8125 C 4.132812 -0.476562 3.867188 -0.238281 3.546875 -0.09375 C 3.222656 0.0507812 2.882812 0.125 2.53125 0.125 Z M 2.5 -3.328125 C 2.207031 -3.328125 1.941406 -3.222656 1.703125 -3.015625 L 1.703125 -0.609375 C 1.835938 -0.441406 1.984375 -0.316406 2.140625 -0.234375 C 2.296875 -0.148438 2.488281 -0.109375 2.71875 -0.109375 C 3.375 -0.109375 3.703125 -0.664062 3.703125 -1.78125 C 3.703125 -2.269531 3.585938 -2.648438 3.359375 -2.921875 C 3.128906 -3.191406 2.84375 -3.328125 2.5 -3.328125 Z M 2.5 -3.328125 "/></g></g></g><g fill="#143c72" fill-opacity="1"><g transform="translate(243.788393, 251.796663)"><g><path d="M 0.34375 0 C 0.320312 0 0.3125 -0.015625 0.3125 -0.046875 C 0.3125 -0.0859375 0.320312 -0.109375 0.34375 -0.109375 C 0.539062 -0.109375 0.675781 -0.15625 0.75 -0.25 C 0.820312 -0.34375 0.859375 -0.519531 0.859375 -0.78125 L 0.875 -5.71875 C 0.875 -5.945312 0.851562 -6.109375 0.8125 -6.203125 C 0.769531 -6.296875 0.695312 -6.34375 0.59375 -6.34375 C 0.507812 -6.34375 0.382812 -6.304688 0.21875 -6.234375 C 0.195312 -6.234375 0.175781 -6.25 0.15625 -6.28125 C 0.144531 -6.320312 0.144531 -6.347656 0.15625 -6.359375 L 1.578125 -7.03125 L 1.625 -7.03125 C 1.65625 -7.03125 1.6875 -7.015625 1.71875 -6.984375 C 1.757812 -6.960938 1.78125 -6.9375 1.78125 -6.90625 L 1.78125 -0.78125 C 1.78125 -0.519531 1.816406 -0.34375 1.890625 -0.25 C 1.960938 -0.15625 2.097656 -0.109375 2.296875 -0.109375 C 2.328125 -0.109375 2.34375 -0.0859375 2.34375 -0.046875 C 2.34375 -0.015625 2.328125 0 2.296875 0 C 2.140625 0 2.007812 -0.00390625 1.90625 -0.015625 L 0.734375 -0.015625 C 0.640625 -0.00390625 0.507812 0 0.34375 0 Z M 0.34375 0 "/></g></g></g><g fill="#143c72" fill-opacity="1"><g transform="translate(247.443223, 251.796663)"><g><path d="M 3.765625 -0.640625 C 3.773438 -0.640625 3.785156 -0.625 3.796875 -0.59375 C 3.816406 -0.570312 3.820312 -0.554688 3.8125 -0.546875 C 3.570312 -0.304688 3.328125 -0.132812 3.078125 -0.03125 C 2.835938 0.0625 2.570312 0.109375 2.28125 0.109375 C 1.875 0.109375 1.519531 0.0234375 1.21875 -0.140625 C 0.925781 -0.304688 0.703125 -0.535156 0.546875 -0.828125 C 0.390625 -1.117188 0.3125 -1.429688 0.3125 -1.765625 C 0.3125 -2.140625 0.40625 -2.484375 0.59375 -2.796875 C 0.78125 -3.117188 1.039062 -3.367188 1.375 -3.546875 C 1.707031 -3.734375 2.082031 -3.828125 2.5 -3.828125 C 2.90625 -3.828125 3.21875 -3.738281 3.4375 -3.5625 C 3.65625 -3.382812 3.765625 -3.101562 3.765625 -2.71875 C 3.765625 -2.519531 3.726562 -2.421875 3.65625 -2.421875 L 1.296875 -2.40625 C 1.296875 -2.363281 1.296875 -2.289062 1.296875 -2.1875 C 1.296875 -1.613281 1.425781 -1.164062 1.6875 -0.84375 C 1.945312 -0.519531 2.320312 -0.359375 2.8125 -0.359375 C 2.988281 -0.359375 3.132812 -0.375 3.25 -0.40625 C 3.375 -0.445312 3.539062 -0.519531 3.75 -0.625 Z M 2.140625 -3.640625 C 1.921875 -3.640625 1.738281 -3.546875 1.59375 -3.359375 C 1.457031 -3.171875 1.363281 -2.914062 1.3125 -2.59375 L 2.734375 -2.625 C 2.722656 -2.945312 2.671875 -3.195312 2.578125 -3.375 C 2.484375 -3.550781 2.335938 -3.640625 2.140625 -3.640625 Z M 2.140625 -3.640625 "/></g></g></g></svg>